<svg width="16" height="13" viewBox="0 0 16 13" fill="none" xmlns="http://www.w3.org/2000/svg">
<path fill-rule="evenodd" clip-rule="evenodd" d="M14.3525 4.1857C14.4181 4.16801 14.4839 4.15898 14.5479 4.15898C14.8989 4.15898 15.1535 4.42077 15.1537 4.78144V5.2091C15.1537 5.63006 14.8029 5.9727 14.3719 5.9727H14.2774L14.4018 6.26855C14.6047 6.7514 14.7699 7.56867 14.7699 8.09051V11.7343C14.7699 12.1552 14.419 12.4979 13.988 12.4979H12.967C12.536 12.4979 12.1851 12.1552 12.1851 11.7343V10.8244H3.39998V11.7343C3.39998 12.1552 3.04915 12.4979 2.61812 12.4979H1.59677C1.16575 12.4979 0.814908 12.1552 0.814908 11.7343V8.09051C0.814908 7.56867 0.980102 6.7514 1.18299 6.26855L1.30741 5.9727H1.22339C0.792366 5.9727 0.441528 5.63006 0.441528 5.2091V4.78144C0.441528 4.42077 0.696156 4.15898 1.04712 4.15898C1.11117 4.15898 1.17695 4.16813 1.24249 4.1857L1.97558 4.38287L2.74549 1.82531C2.96391 1.30571 3.60953 0.882965 4.18468 0.882965H11.4001C11.9753 0.882965 12.6209 1.30583 12.8393 1.82543L13.6101 4.38528L14.3525 4.1857ZM3.5552 2.55124L2.74549 5.40764C2.61492 5.7185 2.7896 5.9727 3.13353 5.9727C3.13353 5.9727 10.2278 5.96449 12.6078 5.9727C12.8718 5.97361 13.0688 5.7185 12.967 5.40764L12.0786 2.55124C11.9574 2.04184 11.3452 1.82531 11.0012 1.82531H4.6426C4.29854 1.82531 3.74999 2.04172 3.5552 2.55124ZM5.13975 9.06691C5.13975 9.23483 4.99895 9.37239 4.82699 9.37239H2.61159C2.4395 9.37239 2.29882 9.23483 2.29882 9.06691V8.02854C2.29882 7.86062 2.43962 7.72315 2.61159 7.72315H4.82699C4.99895 7.72315 5.13975 7.86062 5.13975 8.02854V9.06691ZM12.9521 9.37239C13.1241 9.37239 13.2649 9.23483 13.2649 9.06691V8.02854C13.2649 7.86062 13.1241 7.72315 12.9521 7.72315H10.737C10.565 7.72315 10.4243 7.86062 10.4243 8.02854V9.06691C10.4243 9.23483 10.565 9.37239 10.737 9.37239H12.9521Z" fill="#2069D6"/>
</svg>
