<svg width="16" height="13" fill="none" xmlns="http://www.w3.org/2000/svg"><path fill-rule="evenodd" clip-rule="evenodd" d="M14.352 4.186a.752.752 0 01.196-.027c.35 0 .605.262.606.622v.428a.774.774 0 01-.782.764h-.095l.125.296c.203.482.368 1.3.368 1.822v3.643a.774.774 0 01-.782.764h-1.021a.774.774 0 01-.782-.764v-.91H3.4v.91c0 .421-.35.764-.782.764H1.597a.774.774 0 01-.782-.764V8.091c0-.522.165-1.34.368-1.822l.124-.296h-.084a.774.774 0 01-.781-.764v-.428c0-.36.254-.622.605-.622.064 0 .13.01.195.027l.734.197.77-2.558c.218-.52.864-.942 1.439-.942H11.4c.575 0 1.22.423 1.44.942l.77 2.56.742-.2zM3.555 2.55l-.81 2.857c-.13.31.045.565.389.565 0 0 7.094-.009 9.474 0 .264 0 .46-.255.359-.565l-.888-2.857c-.122-.51-.734-.726-1.078-.726H4.643c-.344 0-.893.217-1.088.726zM5.14 9.067a.31.31 0 01-.313.305H2.612a.31.31 0 01-.313-.305V8.029a.31.31 0 01.313-.306h2.215a.31.31 0 01.313.306v1.038zm7.812.305a.31.31 0 00.313-.305V8.029a.31.31 0 00-.313-.306h-2.215a.31.31 0 00-.313.306v1.038a.31.31 0 00.313.305h2.215z" fill="#2069D6"/></svg>